<?xml version="1.0" encoding="UTF-8"?>
<svg width="76px" height="39px" viewBox="0 0 76 39" version="1.1" xmlns="http://www.w3.org/2000/svg" xmlns:xlink="http://www.w3.org/1999/xlink">
    <!-- Generator: Sketch 49.3 (51167) - http://www.bohemiancoding.com/sketch -->
    <title>logo</title>
    <desc>Created with Sketch.</desc>
    <defs></defs>
    <g id="Page-1" stroke="none" stroke-width="1" fill="none" fill-rule="evenodd">
        <g id="Artboard" transform="translate(-453.000000, -36.000000)" fill="#EA002A" fill-rule="nonzero">
            <g id="logo" transform="translate(453.000000, 36.000000)">
                <path d="M30.8424293,31.6245762 C28.6306608,31.9681449 26.3971024,32.1447959 24.159903,32.1530937 C12.7269335,32.1530937 7.59716391,27.3240368 7.59716391,19.5410741 C7.59716391,12.3011087 12.7482041,7.233133 25.6169419,7.233133 C28.9103461,7.233133 31.8988712,7.44671197 35.8020338,7.76165047 L34.6711447,0.937983127 C31.5862084,0.333921379 28.4531728,0.0224833154 25.3120627,0.0076475797 C8.02257673,0.0076475797 0,8.19966837 0,19.555554 C0,32.1675736 8.33100103,38.991241 23.8762944,38.991241 C28.5397568,39.0673255 33.19831,38.6475593 37.7766583,37.738727 L37.7766583,20.9239075 L30.8849706,20.9239075 L30.8849706,31.6173363 L30.8424293,31.6245762 Z M44.9342289,38.1405451 C52.2147745,28.2841387 58.8752424,17.9657469 64.8754548,7.24761293 C57.1172592,6.87798924 49.3433423,7.05457981 41.6089187,7.7761304 L42.7398078,0.952463057 C53.7916829,-0.330668118 64.9511019,-0.317307825 76,0.992282867 C69.6055899,14.0466389 62.0624817,26.480537 53.4637559,38.1405451 L44.9342289,38.1405451 Z" id="Tracé_55"></path>
            </g>
        </g>
    </g>
</svg>